<?xml version="1.0" encoding="utf-8"?>
<!-- Generator: Adobe Illustrator 19.2.0, SVG Export Plug-In . SVG Version: 6.00 Build 0)  -->
<svg version="1.1" id="Layer_1" xmlns="http://www.w3.org/2000/svg" xmlns:xlink="http://www.w3.org/1999/xlink" x="0px" y="0px"
	 viewBox="0 0 50 50.5" style="enable-background:new 0 0 50 50.5;" xml:space="preserve">
<style type="text/css">
	.st0{fill:#444444;}
</style>
<g>
	<g>
		<path id="SVGID_1_" class="st0" d="M27.2,27.7c0.1,0.5,0.1,1.1,0.2,1.6c0.1,0.5,0.1,1.1,0.4,1.6c0.5,1,0.8,2.1,1,3.2
			c0.2,1.2,0.1,2.4-0.1,3.5c-0.3,1.6-0.8,3.2-1.7,4.6c-1,1.5-2.3,2.6-3.7,3.5c-1.9,1.2-4,2.1-6,3c-0.3,0.1-0.7,0.3-1,0.4
			c0.1,0,0.1,0.1,0.2,0.1c1.9,0.7,3.8,1.1,5.8,1.4h0.8c1.8-0.5,3.6-1.1,5.3-1.9c1.7-0.8,3.4-1.6,4.9-2.9c2.7-2.3,4.2-5.3,4.3-8.9
			c0-0.1-0.1-0.2-0.1-0.3c-3.4-3.2-6.9-6.3-10.3-9.5c0,0-0.1-0.1-0.1-0.1C27,27.2,27.2,27.4,27.2,27.7 M45.8,11.4
			c-1.4,0.2-2.8,0.4-4.2,0.8c-3.7,1-6.3,3.3-7.9,6.8c-0.1,0.2-0.1,0.3,0.1,0.4c1.2,1,2.3,2,3.5,3c0.5,0.4,0.7,0.8,0.7,1.5
			c0,4.2,0,8.3,0,12.5c0,0.1,0,0.3,0.1,0.5c0.5,1.4,0.7,2.9,0.6,4.4c-0.1,1.8-0.6,3.6-1.5,5.2c-0.3,0.6-0.7,1.1-1.1,1.7
			c0.1,0,0.2-0.1,0.3-0.1c2.8-1.5,5.2-3.4,7.3-5.7c4.1-4.8,6.2-10.3,6.4-16.6v-0.6c0-1.6-0.2-3.2-0.5-4.7c-0.6-3.1-1.7-6-3.4-8.6
			C46.1,11.5,46,11.4,45.8,11.4L45.8,11.4 M38.9,4.2c-0.9,0.3-1.7,0.5-2.6,0.8c-2.5,0.9-5,1.9-7.3,3.3c-1.6,1-3.1,2.2-4.2,3.7
			c-1.1,1.6-1.8,3.4-2.1,5.3c-0.2,1.2-0.2,2.3,0,3.5c0.1,0.8,0.3,1.6,0.5,2.5c0.1,0.4,0.1,0.7,0.2,1.1c0.1,0.3,0.2,0.5,0.2,0.8
			c0,1.5,0,2.9,0,4.4c0,2.5-0.1,5.1-0.1,7.6c0,0.1-0.1,0.2-0.1,0.4c-0.1-0.1-0.2-0.1-0.3-0.1c-1.9-1.6-3.7-3.2-5.6-4.8
			c-0.1-0.1-0.1-0.1-0.2-0.2c-0.2,2.8-1.5,5.1-3.3,7.2c-1.9,2.1-4.3,2.9-7,3.4c0,0.1,0,0.1,0.1,0.1c1.3,1.3,2.7,2.5,4.3,3.5
			c0.1,0,0.2,0.1,0.2,0c0.5-0.2,1.1-0.3,1.6-0.5c2.8-0.9,5.5-2.1,8.1-3.6c1.6-1,3-2.2,4.1-3.8c1.1-1.6,1.8-3.4,2-5.4
			c0.1-1,0.1-2.1,0-3.1c-0.1-0.9-0.3-1.8-0.5-2.7c-0.1-0.3-0.1-0.6-0.2-0.9c-0.1-0.3-0.2-0.5-0.2-0.8c0-1.4,0-2.9,0.1-4.3
			c0-2.4,0.1-4.8,0.1-7.3c0-0.2,0-0.4,0-0.6c0-0.2,0.2-0.3,0.3-0.1c0,0,0.1,0.1,0.1,0.1c1.9,1.6,3.7,3.2,5.6,4.8
			c0.1,0,0.1,0.1,0.2,0.1c0-0.4,0.1-0.7,0.1-1c0.7-3.2,2.3-5.8,4.9-7.7c1.4-1,2.9-1.4,4.5-1.7c0.3-0.1,0.6-0.1,1-0.2
			c0-0.1-0.1-0.1-0.1-0.1c-1.2-1.3-2.6-2.5-4.1-3.6c-0.1,0-0.1-0.1-0.2-0.1C39,4.2,39,4.2,38.9,4.2 M15.5,1.6c-0.1,0-0.1,0-0.1,0.1
			C11.7,3.2,8.6,5.4,6,8.5c-3.5,4.2-5.5,9-6,14.3v4.9c0.1,0.7,0.2,1.4,0.3,2.1c0.6,3.5,1.9,6.7,3.8,9.6c0.1,0.1,0.2,0.2,0.3,0.1
			c1.5-0.2,3-0.4,4.5-0.9c3.5-1.1,6-3.3,7.5-6.7c0.1-0.1,0-0.2-0.1-0.3c-1.2-1-2.4-2.1-3.6-3.1c-0.4-0.3-0.6-0.7-0.6-1.3
			c0-4.2,0-8.4,0-12.6c0-0.1,0-0.3-0.1-0.4c-0.4-1.3-0.7-2.5-0.6-3.8c0-1,0.2-2.1,0.4-3.1c0.5-2,1.5-3.8,3-5.3
			C15.1,2,15.3,1.8,15.5,1.6L15.5,1.6L15.5,1.6 M28.3,0.1c-1.2,0.4-2.5,0.7-3.7,1.2c-2,0.7-3.9,1.5-5.7,2.6
			c-1.9,1.2-3.5,2.7-4.6,4.7c-0.9,1.6-1.3,3.3-1.5,5.1c0,0.4,0.1,0.7,0.4,1c2.2,2,4.3,4,6.5,6c1.2,1.1,2.5,2.3,3.7,3.4
			c-0.1-0.1-0.1-0.3-0.2-0.4c0-0.1-0.1-0.2-0.1-0.3c-0.1-0.7-0.1-1.4-0.2-2c0-0.4-0.1-0.7-0.3-1c-0.5-1-0.9-2.1-1.1-3.3
			c-0.2-1.2-0.2-2.5,0.1-3.7c0.3-1.8,0.9-3.6,2.1-5.1c0.9-1.2,2.1-2.2,3.3-3c1.9-1.2,3.9-2.1,5.9-2.9c0.6-0.2,1.1-0.4,1.7-0.7
			c-0.1,0-0.1-0.1-0.2-0.1c-1.6-0.7-3.3-1.1-5-1.5C29.1,0,29,0,28.8,0C28.6,0,28.4,0,28.3,0.1"/>
	</g>
</g>
</svg>
