<?xml version="1.0" encoding="utf-8"?>
<!-- Generator: Adobe Illustrator 16.0.4, SVG Export Plug-In . SVG Version: 6.00 Build 0)  -->
<!DOCTYPE svg PUBLIC "-//W3C//DTD SVG 1.1//EN" "http://www.w3.org/Graphics/SVG/1.1/DTD/svg11.dtd">
<svg version="1.1" id="Layer_1" xmlns="http://www.w3.org/2000/svg" xmlns:xlink="http://www.w3.org/1999/xlink" x="0px" y="0px"
	 width="713.636px" height="270.848px" viewBox="0 0 713.636 270.848" enable-background="new 0 0 713.636 270.848"
	 xml:space="preserve">
<g>
	<defs>
		<path id="SVGID_1_" d="M145.813,148.177c0.42,2.829,0.611,5.7,0.874,8.571c0.275,2.933,0.665,5.762,2.061,8.505
			c2.751,5.378,4.441,11.174,5.386,17.175c1.014,6.34,0.793,12.697-0.289,19.008c-1.519,8.744-4.221,17.018-8.978,24.543
			c-5.08,8.034-12.092,13.949-19.955,18.933c-10.216,6.458-21.193,11.351-32.335,15.913c-1.772,0.734-3.552,1.451-5.54,2.254
			c0.553,0.205,0.846,0.35,1.143,0.453c10.115,3.721,20.502,6.141,31.187,7.316h4.187c9.704-2.763,19.22-6.078,28.478-10.16
			c9.287-4.096,18.263-8.741,26.09-15.375c14.658-12.43,22.33-28.385,23.035-47.803c0.027-0.557-0.256-1.283-0.639-1.66
			c-18.412-16.99-36.835-33.935-55.257-50.891c-0.25-0.241-0.519-0.438-0.802-0.652
			C144.945,145.636,145.612,146.855,145.813,148.177 M245.485,60.937c-7.525,0.877-14.993,1.986-22.307,4.097
			c-19.561,5.632-33.749,17.684-42.251,36.561c-0.414,0.924-0.29,1.439,0.497,2.095c6.28,5.325,12.456,10.765,18.817,15.993
			c2.541,2.081,3.555,4.515,3.543,7.775c-0.029,22.309,0.043,44.625,0.102,66.947c0,0.83,0.172,1.687,0.435,2.472
			c2.558,7.641,3.868,15.451,3.191,23.551c-0.809,9.818-3.383,19.115-8.093,27.748c-1.724,3.119-3.841,6.023-5.834,9.113
			c0.472-0.228,0.925-0.445,1.374-0.67c14.887-7.791,27.98-17.951,39.039-30.726c22.021-25.452,33.28-55.241,34.094-89.089
			c0.014-0.77,0.019-1.534,0.019-2.297v-0.896c-0.019-8.478-0.948-16.883-2.585-25.229c-3.245-16.554-9.272-31.983-18.085-46.296
			c-0.426-0.699-0.823-1.173-1.661-1.173C245.696,60.915,245.586,60.923,245.485,60.937 M208.801,22.384
			c-4.618,1.377-9.271,2.665-13.835,4.248c-13.535,4.657-26.698,10.187-38.982,17.69c-8.663,5.282-16.412,11.654-22.409,20.027
			c-6.136,8.551-9.841,18.094-11.349,28.551c-0.899,6.228-0.959,12.455,0.068,18.65c0.743,4.418,1.669,8.838,2.531,13.249
			c0.377,1.886,0.843,3.758,1.276,5.654c0.323,1.399,0.956,2.789,0.956,4.194c0.007,7.899-0.131,15.812-0.219,23.731
			c-0.144,13.552-0.289,27.113-0.491,40.674c-0.007,0.676-0.474,1.338-0.731,2.041c-0.584-0.256-1.269-0.42-1.736-0.815
			c-9.976-8.477-19.928-16.995-29.89-25.495c-0.317-0.28-0.67-0.527-1.145-0.913c-1.205,15.158-7.768,27.618-17.532,38.479
			c-10.046,11.155-23.217,15.803-37.541,18.09c0.185,0.286,0.245,0.432,0.363,0.54c6.953,7.16,14.564,13.479,22.906,18.867
			c0.338,0.236,0.909,0.27,1.31,0.16c2.943-0.864,5.895-1.703,8.804-2.685c15.018-5.022,29.64-10.996,43.164-19.468
			c8.567-5.362,16.146-11.887,21.93-20.34c5.959-8.701,9.438-18.349,10.762-28.818c0.712-5.584,0.712-11.185-0.184-16.732
			c-0.801-4.912-1.829-9.788-2.795-14.675c-0.325-1.618-0.751-3.214-1.129-4.823c-0.333-1.439-0.952-2.887-0.952-4.332
			c0-7.701,0.179-15.415,0.263-23.116c0.151-12.985,0.277-25.976,0.421-38.952c0.007-1.022,0.007-2.036,0.131-3.035
			c0.145-1.205,0.897-1.508,1.831-0.823c0.23,0.164,0.441,0.356,0.656,0.542c9.983,8.531,19.976,17.066,29.958,25.598
			c0.283,0.239,0.595,0.452,0.992,0.76c0.216-1.94,0.282-3.693,0.637-5.392c3.507-17.211,12.19-31.038,26.356-41.115
			c7.251-5.146,15.605-7.607,24.19-9.307c1.647-0.329,3.309-0.63,5.087-0.944c-0.205-0.295-0.29-0.445-0.388-0.556
			c-6.561-7.194-13.809-13.592-21.751-19.155c-0.291-0.194-0.705-0.304-1.098-0.304C209.083,22.334,208.927,22.356,208.801,22.384
			 M82.918,8.364c-0.263,0.103-0.525,0.206-0.777,0.316c-19.405,8.297-36.125,20.396-49.86,36.655
			C13.322,67.757,2.687,93.432,0,122.106v26.457c0.389,3.707,0.934,7.403,1.601,11.085c3.389,18.644,10.283,35.8,20.607,51.559
			c0.428,0.663,0.882,0.906,1.656,0.821c8.128-0.898,16.18-2.158,24.014-4.645c18.719-5.933,32.191-17.931,40.302-36.147
			c0.363-0.812,0.232-1.249-0.422-1.812c-6.489-5.513-12.919-11.092-19.465-16.544c-2.164-1.819-3.061-4.011-3.061-6.786
			c-0.005-22.472-0.026-44.952-0.07-67.431c0-0.788-0.151-1.617-0.404-2.351c-2.241-6.578-3.518-13.3-3.421-20.274
			c0.074-5.632,0.981-11.134,2.441-16.538c2.95-10.889,7.956-20.577,16.286-28.244c1.025-0.946,2.103-1.85,3.294-2.892
			c-0.171,0-0.276-0.007-0.336-0.007C82.973,8.357,82.945,8.357,82.918,8.364 M151.452,0.431C144.779,2.554,138,4.397,131.361,6.658
			c-10.665,3.66-20.995,8.126-30.667,14.027c-10.356,6.309-18.999,14.36-24.901,25.199c-4.645,8.524-7.244,17.657-7.961,27.392
			c-0.172,2.364,0.487,3.831,2.191,5.379c11.689,10.62,23.277,21.349,34.902,32.047c6.626,6.081,13.237,12.18,19.864,18.271
			c-0.266-0.809-0.701-1.516-1.055-2.276c-0.236-0.506-0.474-1.039-0.532-1.58c-0.377-3.64-0.73-7.257-1.047-10.916
			c-0.171-1.932-0.558-3.775-1.474-5.557c-2.801-5.55-4.703-11.428-5.723-17.58c-1.091-6.613-0.869-13.251,0.29-19.862
			c1.736-9.901,5.013-19.159,11.012-27.282c4.873-6.585,11.106-11.624,17.933-15.918c10.031-6.309,20.78-11.142,31.681-15.629
			c3.013-1.227,6.052-2.418,9.269-3.693c-0.5-0.234-0.796-0.397-1.119-0.526c-8.684-3.572-17.625-6.14-26.815-7.861
			C156.249,0.108,155.312,0,154.374,0C153.412,0,152.445,0.116,151.452,0.431"/>
	</defs>
	<radialGradient id="SVGID_2_" cx="134.0557" cy="135.4238" r="134.7415" gradientUnits="userSpaceOnUse">
		<stop  offset="0.3063" style="stop-color:#68CBDF"/>
		<stop  offset="0.9114" style="stop-color:#376CB2"/>
		<stop  offset="1" style="stop-color:#376CB4"/>
	</radialGradient>
	<use xlink:href="#SVGID_1_"  overflow="visible" fill="url(#SVGID_2_)"/>
	<clipPath id="SVGID_3_">
		<use xlink:href="#SVGID_1_"  overflow="visible"/>
	</clipPath>
</g>
<g>
	<g>
		<path fill="#696969" d="M399.29,66.833c0,38.68-23.504,59.188-52.176,59.188c-29.673,0-50.509-23.008-50.509-57.02
			c0-35.68,22.17-59.022,52.175-59.022C379.453,9.979,399.29,33.488,399.29,66.833 M312.106,68.667
			c0,24.009,13.002,45.517,35.84,45.517c23.005,0,36.007-21.174,36.007-46.684c0-22.341-11.669-45.683-35.84-45.683
			C324.108,21.817,312.106,43.993,312.106,68.667"/>
		<path fill="#696969" d="M512.821,74.837c-0.834-15.672-1.834-34.513-1.667-48.518h-0.501
			c-3.834,13.172-8.501,27.177-14.169,42.683l-19.837,54.519h-11.003l-18.17-53.52c-5.335-15.839-9.835-30.343-13.003-43.682h-0.333
			c-0.333,14.005-1.167,32.846-2.167,49.685l-3.001,48.184h-13.837l7.836-112.374h18.504l19.171,54.353
			c4.667,13.838,8.501,26.176,11.335,37.847h0.5c2.834-11.337,6.835-23.675,11.836-37.847l20.004-54.353h18.503l7.001,112.374
			h-14.169L512.821,74.837z"/>
		<path fill="#696969" d="M552.168,124.188V11.813h15.837l36.007,56.854c8.335,13.172,14.835,25.009,20.169,36.514l0.336-0.168
			c-1.335-15.005-1.667-28.676-1.667-46.182V11.813h13.67v112.374h-14.672l-35.675-57.021
			c-7.833-12.504-15.335-25.342-21.003-37.513l-0.499,0.167c0.833,14.172,1.166,27.677,1.166,46.35v48.017H552.168z"/>
		<rect x="661.865" y="11.813" fill="#696969" width="14.503" height="112.374"/>
		<rect x="295.21" y="156.066" fill="#696969" width="5.275" height="40.869"/>
		<path fill="#696969" d="M309.7,196.936v-40.869h5.76l13.096,20.678c3.033,4.789,5.397,9.096,7.337,13.277l0.122-0.061
			c-0.485-5.457-0.606-10.428-0.606-16.797v-17.098h4.972v40.869h-5.336l-12.975-20.738c-2.851-4.549-5.579-9.217-7.641-13.643
			l-0.181,0.061c0.302,5.153,0.424,10.066,0.424,16.857v17.463H309.7z"/>
		<polygon fill="#696969" points="357.349,160.553 344.919,160.553 344.919,156.066 375.176,156.066 375.176,160.553 
			362.685,160.553 362.685,196.936 357.349,196.936 		"/>
		<polygon fill="#696969" points="400.878,177.773 384.992,177.773 384.992,192.508 402.698,192.508 402.698,196.936 
			379.717,196.936 379.717,156.066 401.789,156.066 401.789,160.492 384.992,160.492 384.992,173.408 400.878,173.408 		"/>
		<path fill="#696969" d="M409.542,156.612c2.668-0.546,6.488-0.849,10.126-0.849c5.64,0,9.277,1.03,11.823,3.334
			c2.062,1.82,3.215,4.608,3.215,7.762c0,5.396-3.396,8.975-7.7,10.43v0.182c3.152,1.092,5.032,4.002,6.002,8.248
			c1.334,5.699,2.304,9.639,3.152,11.217h-5.457c-0.666-1.152-1.576-4.67-2.729-9.764c-1.212-5.639-3.395-7.762-8.186-7.943h-4.972
			v17.707h-5.275V156.612z M414.818,175.227h5.396c5.641,0,9.218-3.092,9.218-7.761c0-5.275-3.82-7.579-9.398-7.64
			c-2.547,0-4.365,0.242-5.215,0.485V175.227z"/>
		<path fill="#696969" d="M442.158,196.936v-40.869h5.76l13.096,20.678c3.033,4.789,5.397,9.096,7.338,13.277l0.121-0.061
			c-0.484-5.457-0.605-10.428-0.605-16.797v-17.098h4.972v40.869h-5.336l-12.976-20.738c-2.85-4.549-5.579-9.217-7.641-13.643
			l-0.181,0.061c0.303,5.153,0.424,10.066,0.424,16.857v17.463H442.158z"/>
		<path fill="#696969" d="M488.655,184.08l-4.244,12.855h-5.457l13.886-40.869h6.366l13.946,40.869h-5.64l-4.365-12.855H488.655z
			 M502.055,179.957l-4.002-11.764c-0.909-2.667-1.516-5.094-2.122-7.459h-0.121c-0.606,2.426-1.274,4.913-2.062,7.398
			l-4.002,11.824H502.055z"/>
		<polygon fill="#696969" points="522.24,160.553 509.81,160.553 509.81,156.066 540.067,156.066 540.067,160.553 527.576,160.553 
			527.576,196.936 522.24,196.936 		"/>
		<rect x="544.609" y="156.066" fill="#696969" width="5.275" height="40.869"/>
		<path fill="#696969" d="M594.025,176.076c0,14.066-8.55,21.525-18.98,21.525c-10.792,0-18.371-8.367-18.371-20.738
			c0-12.976,8.063-21.465,18.978-21.465C586.81,155.398,594.025,163.95,594.025,176.076 M562.311,176.744
			c0,8.73,4.729,16.553,13.037,16.553c8.367,0,13.097-7.701,13.097-16.979c0-8.125-4.245-16.613-13.036-16.613
			C566.678,159.705,562.311,167.769,562.311,176.744"/>
		<path fill="#696969" d="M600.867,196.936v-40.869h5.76l13.099,20.678c3.032,4.789,5.396,9.096,7.336,13.277l0.121-0.061
			c-0.483-5.457-0.604-10.428-0.604-16.797v-17.098h4.971v40.869h-5.334l-12.979-20.738c-2.849-4.549-5.576-9.217-7.641-13.643
			l-0.18,0.061c0.301,5.153,0.422,10.066,0.422,16.857v17.463H600.867z"/>
		<path fill="#696969" d="M647.365,184.08l-4.245,12.855h-5.455l13.884-40.869h6.368l13.946,40.869h-5.639l-4.367-12.855H647.365z
			 M660.765,179.957l-4-11.764c-0.913-2.667-1.518-5.094-2.123-7.459h-0.121c-0.608,2.426-1.275,4.913-2.063,7.398l-4,11.824
			H660.765z"/>
		<polygon fill="#696969" points="677.857,156.066 683.132,156.066 683.132,192.508 700.595,192.508 700.595,196.936 
			677.857,196.936 		"/>
	</g>
	<g>
		<path fill="#696969" d="M298.728,221.613h-5.904v-3.312h15.505v3.312h-5.904v29.043h-3.697V221.613z"/>
		<path fill="#696969" d="M311.016,217.438h3.696v12.48h0.096c0.48-0.815,1.2-1.535,1.92-2.016c0.864-0.528,1.776-0.864,3.12-0.864
			c2.928,0,5.425,2.353,5.425,8.209v15.409h-3.696v-14.978c0-2.832-0.624-5.521-3.121-5.521c-1.728,0-3.024,1.248-3.6,3.696
			c-0.096,0.528-0.144,1.2-0.144,1.776v15.025h-3.696V217.438z"/>
		<path fill="#696969" d="M333.048,239.375c0.048,7.104,2.832,8.641,5.521,8.641c1.584,0,2.928-0.384,3.84-0.912l0.576,2.736
			c-1.296,0.721-3.264,1.104-5.088,1.104c-5.568,0-8.449-4.561-8.449-11.665c0-7.537,3.168-12.241,7.825-12.241
			c4.752,0,6.625,4.992,6.625,10.273c0,0.863,0,1.487-0.048,2.063H333.048z M340.344,236.639c0.096-4.656-1.68-6.721-3.456-6.721
			c-2.4,0-3.648,3.553-3.792,6.721H340.344z"/>
		<path fill="#696969" d="M359.399,218.302v13.873h9.073v-13.873h3.696v32.354h-3.696v-15.121h-9.073v15.121h-3.696v-32.354H359.399
			z"/>
		<path fill="#696969" d="M391.705,239.039c0,8.977-4.177,12.001-7.729,12.001c-4.177,0-7.537-3.792-7.537-11.953
			c0-8.496,3.792-12.049,7.776-12.049C388.344,227.038,391.705,230.927,391.705,239.039z M380.135,239.039
			c0,3.841,0.672,9.073,4.032,9.073c3.169,0,3.793-5.473,3.793-9.073c0-3.552-0.624-9.024-3.889-9.024
			C380.759,230.015,380.135,235.487,380.135,239.039z"/>
		<path fill="#696969" d="M395.831,233.423c0-2.736-0.144-4.129-0.191-6.001h3.216l0.192,2.881h0.096
			c1.008-1.872,2.784-3.265,5.232-3.265c2.16,0,3.984,1.057,4.849,3.553h0.096c0.624-1.152,1.44-2.064,2.305-2.641
			c0.912-0.624,2.016-0.912,3.216-0.912c3.12,0,5.568,2.305,5.568,8.209v15.409h-3.647v-14.545c0-3.024-0.433-5.953-3.265-5.953
			c-1.536,0-2.88,1.297-3.408,3.457c-0.096,0.624-0.145,1.344-0.145,2.111v14.93h-3.648v-15.218c0-2.592-0.479-5.28-3.216-5.28
			c-1.488,0-3.024,1.297-3.456,3.744c-0.097,0.625-0.145,1.297-0.145,2.017v14.737h-3.648V233.423z"/>
		<path fill="#696969" d="M439.848,239.039c0,8.977-4.177,12.001-7.729,12.001c-4.177,0-7.537-3.792-7.537-11.953
			c0-8.496,3.793-12.049,7.776-12.049C436.488,227.038,439.848,230.927,439.848,239.039z M428.279,239.039
			c0,3.841,0.672,9.073,4.032,9.073c3.169,0,3.793-5.473,3.793-9.073c0-3.552-0.624-9.024-3.889-9.024
			C428.903,230.015,428.279,235.487,428.279,239.039z"/>
		<path fill="#696969" d="M458.184,227.422c-0.048,1.633-0.192,3.696-0.192,7.249v13.009c0,6.097-0.768,8.401-2.304,10.081
			c-1.393,1.584-3.601,2.496-6.193,2.496c-1.968,0-3.888-0.479-5.088-1.151l0.864-2.881c0.912,0.48,2.448,1.008,4.32,1.008
			c2.928,0,4.752-1.824,4.752-7.104v-2.352h-0.096c-0.816,1.824-2.496,2.832-4.465,2.832c-4.128,0-6.816-4.656-6.816-11.474
			c0-8.544,3.889-12.097,7.297-12.097c2.496,0,3.648,1.632,4.32,3.024h0.096l0.192-2.641H458.184z M454.343,235.438
			c0-0.575-0.048-1.199-0.191-1.68c-0.433-1.584-1.249-3.553-3.36-3.553c-2.688,0-4.129,3.601-4.129,8.737
			c0,5.952,1.872,8.641,4.129,8.641c1.104,0,2.544-0.528,3.312-3.312c0.192-0.72,0.24-1.439,0.24-2.112V235.438z"/>
		<path fill="#696969" d="M465.718,239.375c0.048,7.104,2.832,8.641,5.521,8.641c1.584,0,2.928-0.384,3.84-0.912l0.576,2.736
			c-1.296,0.721-3.264,1.104-5.088,1.104c-5.568,0-8.449-4.561-8.449-11.665c0-7.537,3.168-12.241,7.825-12.241
			c4.752,0,6.624,4.992,6.624,10.273c0,0.863,0,1.487-0.048,2.063H465.718z M473.015,236.639c0.096-4.656-1.681-6.721-3.457-6.721
			c-2.399,0-3.647,3.553-3.792,6.721H473.015z"/>
		<path fill="#696969" d="M480.549,233.423c0-2.736-0.144-4.129-0.191-6.001h3.216l0.192,2.784h0.096
			c1.008-1.872,2.881-3.168,5.329-3.168c3.216,0,5.616,2.4,5.616,8.017v15.602h-3.696v-14.978c0-2.736-0.528-5.521-3.217-5.521
			c-1.536,0-3.024,1.297-3.504,3.793c-0.096,0.576-0.145,1.296-0.145,2.063v14.642h-3.696V233.423z"/>
		<path fill="#696969" d="M503.973,221.422c0.049,1.44-0.863,2.4-2.256,2.4c-1.2,0-2.112-0.96-2.112-2.4s0.96-2.4,2.16-2.4
			C503.11,219.021,503.973,219.981,503.973,221.422z M499.989,250.656v-23.234h3.696v23.234H499.989z"/>
		<path fill="#696969" d="M506.997,248.4l7.345-14.354c0.624-1.2,1.345-2.4,1.872-3.456v-0.097h-8.305v-3.072h12.386v2.448
			l-7.249,14.161c-0.624,1.2-1.344,2.4-1.872,3.457v0.096h9.121v3.072h-13.298V248.4z"/>
		<path fill="#696969" d="M525.861,239.375c0.048,7.104,2.832,8.641,5.521,8.641c1.584,0,2.928-0.384,3.84-0.912l0.576,2.736
			c-1.296,0.721-3.264,1.104-5.088,1.104c-5.568,0-8.449-4.561-8.449-11.665c0-7.537,3.168-12.241,7.825-12.241
			c4.752,0,6.624,4.992,6.624,10.273c0,0.863,0,1.487-0.048,2.063H525.861z M533.158,236.639c0.096-4.656-1.681-6.721-3.457-6.721
			c-2.399,0-3.647,3.553-3.792,6.721H533.158z"/>
		<path fill="#696969" d="M540.644,233.423c0-1.968-0.144-4.272-0.191-6.001h3.312l0.192,3.648h0.096
			c0.769-2.208,2.736-4.032,4.896-4.032c0.288,0,0.528,0.048,0.769,0.048v3.793c-0.24-0.049-0.48-0.049-0.769-0.049
			c-2.352,0-4.08,2.16-4.464,4.849c-0.097,0.624-0.145,1.345-0.145,2.112v12.865h-3.696V233.423z"/>
		<path fill="#696969" d="M574.533,250.08c-1.008,0.528-2.592,0.864-4.608,0.864c-6.336,0-10.849-5.089-10.849-16.081
			c0-12.77,6.337-16.85,11.425-16.85c1.969,0,3.36,0.384,4.032,0.815l-0.815,3.121c-0.769-0.337-1.584-0.673-3.265-0.673
			c-3.456,0-7.488,3.36-7.488,13.25c0,9.889,3.648,13.152,7.584,13.152c1.393,0,2.641-0.336,3.408-0.72L574.533,250.08z"/>
		<path fill="#696969" d="M591.428,239.039c0,8.977-4.177,12.001-7.729,12.001c-4.177,0-7.537-3.792-7.537-11.953
			c0-8.496,3.793-12.049,7.776-12.049C588.068,227.038,591.428,230.927,591.428,239.039z M579.859,239.039
			c0,3.841,0.672,9.073,4.032,9.073c3.169,0,3.793-5.473,3.793-9.073c0-3.552-0.624-9.024-3.889-9.024
			C580.483,230.015,579.859,235.487,579.859,239.039z"/>
		<path fill="#696969" d="M595.554,233.423c0-2.736-0.144-4.129-0.191-6.001h3.216l0.192,2.881h0.096
			c1.009-1.872,2.784-3.265,5.232-3.265c2.16,0,3.984,1.057,4.849,3.553h0.096c0.624-1.152,1.44-2.064,2.305-2.641
			c0.912-0.624,2.016-0.912,3.216-0.912c3.12,0,5.568,2.305,5.568,8.209v15.409h-3.647v-14.545c0-3.024-0.433-5.953-3.265-5.953
			c-1.536,0-2.88,1.297-3.408,3.457c-0.096,0.624-0.145,1.344-0.145,2.111v14.93h-3.647v-15.218c0-2.592-0.48-5.28-3.217-5.28
			c-1.488,0-3.024,1.297-3.456,3.744c-0.097,0.625-0.145,1.297-0.145,2.017v14.737h-3.648V233.423z"/>
		<path fill="#696969" d="M625.266,234.671c0-3.553-0.144-5.616-0.191-7.249h3.312l0.192,2.977h0.096
			c1.248-2.496,3.072-3.36,4.896-3.36c4.032,0,6.721,4.32,6.721,11.953c0,8.593-3.552,12.049-7.2,12.049
			c-2.16,0-3.408-1.392-4.032-2.688h-0.097v11.521h-3.696V234.671z M628.962,242.111c0,0.721,0,1.393,0.145,1.92
			c0.72,3.312,2.4,3.937,3.408,3.937c3.072,0,4.032-4.224,4.032-8.929c0-4.8-1.152-8.833-4.08-8.833
			c-1.681,0-3.169,2.112-3.408,4.225c-0.097,0.576-0.097,1.152-0.097,1.776V242.111z"/>
		<path fill="#696969" d="M653.634,250.656l-0.239-2.448h-0.145c-1.008,1.776-2.641,2.832-4.608,2.832
			c-3.12,0-5.521-2.64-5.521-6.624c0-5.809,4.656-8.401,9.889-8.449v-0.72c0-3.12-0.768-5.28-3.696-5.28
			c-1.439,0-2.736,0.479-3.84,1.2l-0.816-2.593c0.96-0.72,3.12-1.536,5.425-1.536c4.656,0,6.672,3.072,6.672,8.305v10.033
			c0,1.776,0,3.792,0.24,5.28H653.634z M653.107,238.655c-1.921,0-6.385,0.336-6.385,5.376c0,3.024,1.536,4.129,2.832,4.129
			c1.632,0,3.024-1.2,3.456-3.505c0.097-0.432,0.097-0.911,0.097-1.296V238.655z"/>
		<path fill="#696969" d="M661.938,233.423c0-2.736-0.144-4.129-0.191-6.001h3.216l0.192,2.784h0.096
			c1.008-1.872,2.881-3.168,5.329-3.168c3.216,0,5.616,2.4,5.616,8.017v15.602H672.5v-14.978c0-2.736-0.528-5.521-3.217-5.521
			c-1.536,0-3.024,1.297-3.504,3.793c-0.096,0.576-0.145,1.296-0.145,2.063v14.642h-3.696V233.423z"/>
		<path fill="#696969" d="M682.867,227.422l3.072,13.346c0.432,1.824,0.672,3.36,0.96,4.8h0.096c0.24-1.296,0.624-3.072,1.008-4.752
			l2.736-13.394h3.648l-3.792,14.93c-1.44,5.856-3.024,11.473-5.761,14.978c-1.632,2.063-3.36,3.168-4.176,3.552l-1.345-3.168
			c1.057-0.576,2.208-1.584,3.265-2.929c0.96-1.199,1.728-2.784,2.112-3.888c0.191-0.576,0.239-0.816,0.239-1.152
			c0-0.288,0-0.576-0.096-0.864l-5.856-21.458H682.867z"/>
		<path fill="#696969" d="M699.865,219.763h-2.215v-1.242h5.815v1.242h-2.215v10.894h-1.386V219.763z"/>
		<path fill="#696969" d="M712.088,225.435c-0.09-1.603-0.181-3.385-0.126-4.753h-0.072c-0.271,1.35-0.595,2.79-0.973,4.213
			l-1.494,5.689h-0.882l-1.423-5.455c-0.396-1.549-0.756-3.043-0.99-4.447h-0.054c0,1.422-0.072,3.114-0.145,4.843l-0.234,5.132
			h-1.242l0.721-12.136h1.494l1.423,5.546c0.414,1.603,0.72,2.791,0.972,4.177h0.055c0.233-1.386,0.504-2.538,0.899-4.177
			l1.369-5.546h1.548l0.702,12.136h-1.296L712.088,225.435z"/>
	</g>
</g>
</svg>
