<svg class="data-txt" data-txt="Quote" version="1.1" xmlns="http://www.w3.org/2000/svg" xmlns:xlink="http://www.w3.org/1999/xlink" x="0px" y="0px" viewBox="0 0 89.1 70.3" style="enable-background:new 0 0 89.1 70.3;" xml:space="preserve">
	<style type="text/css">
		.st00{fill:#6B6A6C;}
		.st11{fill:#ffffff;}
	</style>
	<g id="Layer_2">
		<path class="st0 st00" d="M26.4,69.8h41.6c6.6,0,12-5.4,12-12V12.7c0-6.6-5.4-12-12-12H26.4c-6.6,0-12,5.4-12,12v45.1C14.4,64.4,19.8,69.8,26.4,69.8z"></path>
	</g>
	<g id="Layer_1">
		<title>137all</title>
		<g>
			<path class="st1 st11" d="M65.4,50.3c0,3.7-0.7,7.2-1.9,10.5c7.1-5.7,11.7-13.9,11.8-22.9l0.1-0.2V15.9H52V44h12.7C65.2,46,65.4,48.1,65.4,50.3z"></path>
			<path class="st1 st11" d="M31.8,43.9c0.5,2.1,0.7,4.2,0.7,6.4c0,3.6-0.7,7.2-1.9,10.4c7.2-5.8,11.8-14,11.8-23.2h0v-0.1c0,0,0-0.1,0-0.1s0-0.1,0-0.1V15.8H19v28L31.8,43.9L31.8,43.9z"></path>
		</g>
	</g>
</svg>